<svg width="96" height="96" xmlns="http://www.w3.org/2000/svg" xmlns:xlink="http://www.w3.org/1999/xlink" xml:space="preserve" overflow="hidden"><defs><clipPath id="clip0"><rect x="220" y="466" width="96" height="96"/></clipPath></defs><g clip-path="url(#clip0)" transform="translate(-220 -466)"><path d="M282.901 502.188C282.51 501.798 281.877 501.798 281.487 502.188L250.723 532.952C250.716 532.958 250.714 532.968 250.708 532.974L250.704 532.971C236.857 547.587 227.517 547.857 227.424 547.859L227.43 549.859C227.84 549.859 237.627 549.682 252.156 534.347L282.901 503.602C283.291 503.212 283.291 502.579 282.901 502.188Z"/><path d="M288.154 499.48C291.292 499.48 296.766 498.929 300.224 495.47 305.301 490.393 304.82 480.267 304.82 480.267 304.82 480.267 304.564 480.255 304.112 480.255 301.724 480.255 293.886 480.595 289.618 484.863 284.541 489.941 285.729 499.36 285.729 499.36 286.534 499.446 287.344 499.486 288.154 499.48ZM291.032 486.278C294.193 483.117 299.859 482.425 302.81 482.287 302.649 485.622 301.772 491.095 298.81 494.056 295.831 497.035 290.855 497.48 288.154 497.48 287.963 497.48 287.782 497.478 287.612 497.474 287.548 494.793 287.864 489.446 291.032 486.278Z"/><path d="M280.808 518.356C280.74 518.355 280.672 518.354 280.603 518.354 273.498 518.354 266.663 525.579 266.663 525.579 266.663 525.579 273.334 533.212 280.513 533.354 280.581 533.355 280.649 533.355 280.717 533.355 287.804 533.355 293.658 526.112 293.658 526.112 293.658 526.112 287.987 518.498 280.808 518.356ZM280.717 531.355 280.552 531.354C276.092 531.266 271.666 527.663 269.514 525.628 271.994 523.465 276.464 520.354 280.603 520.354L280.769 520.356C285.226 520.444 289.173 524.086 290.992 526.062 289.126 527.942 285.131 531.355 280.717 531.355Z"/><path d="M266.666 532.499C266.598 532.497 266.53 532.497 266.461 532.497 259.356 532.497 252.521 539.721 252.521 539.721 252.521 539.721 259.192 547.354 266.37 547.496 266.438 547.497 266.507 547.498 266.575 547.498 273.662 547.498 279.516 540.253 279.516 540.253 279.516 540.253 273.845 532.64 266.666 532.499ZM266.575 545.498 266.41 545.496C261.95 545.408 257.523 541.805 255.372 539.77 257.852 537.607 262.322 534.497 266.461 534.497L266.627 534.498C271.081 534.586 275.027 538.224 276.847 540.201 274.973 542.082 270.965 545.498 266.575 545.498Z"/><path d="M294.951 504.214C294.882 504.213 294.814 504.212 294.745 504.212 287.64 504.212 280.805 511.437 280.805 511.437 280.805 511.437 287.477 519.07 294.655 519.211 294.723 519.213 294.791 519.213 294.859 519.213 301.946 519.213 307.8 511.969 307.8 511.969 307.8 511.969 302.129 504.356 294.951 504.214ZM294.859 517.213 294.694 517.212C290.234 517.124 285.808 513.521 283.657 511.486 286.137 509.323 290.606 506.212 294.745 506.212L294.911 506.214C299.366 506.302 303.311 509.94 305.131 511.917 303.257 513.797 299.249 517.213 294.859 517.213Z"/><path d="M259.488 518.404C259.488 518.404 266.852 511.437 266.71 504.258 266.569 497.08 258.955 491.409 258.955 491.409 258.955 491.409 251.572 497.376 251.713 504.554 251.855 511.732 259.488 518.404 259.488 518.404ZM259.011 494.074C260.988 495.887 264.622 499.819 264.711 504.298 264.799 508.752 261.382 513.311 259.432 515.544 257.394 513.389 253.801 508.968 253.713 504.515 253.625 500.059 257.107 495.971 259.011 494.074Z"/><path d="M245.346 532.546C245.346 532.546 252.71 525.579 252.568 518.401 252.426 511.222 244.813 505.551 244.813 505.551 244.813 505.551 237.429 511.518 237.571 518.696 237.713 525.875 245.346 532.546 245.346 532.546ZM244.869 508.217C246.846 510.029 250.48 513.962 250.569 518.44 250.657 522.894 247.24 527.453 245.29 529.686 243.252 527.531 239.659 523.11 239.571 518.657 239.483 514.201 242.965 510.113 244.869 508.217Z"/><path d="M273.63 504.261C273.63 504.261 280.994 497.294 280.852 490.116 280.711 482.938 273.097 477.267 273.097 477.267 273.097 477.267 265.714 483.234 265.855 490.412 265.997 497.59 273.63 504.261 273.63 504.261ZM273.15 479.935C275.128 481.757 278.765 485.702 278.853 490.155 278.941 494.609 275.524 499.169 273.574 501.402 271.536 499.247 267.943 494.826 267.855 490.372 267.767 485.919 271.246 481.833 273.15 479.935Z"/></g></svg>