<svg width="96" height="96" xmlns="http://www.w3.org/2000/svg" xmlns:xlink="http://www.w3.org/1999/xlink" xml:space="preserve" overflow="hidden"><defs><clipPath id="clip0"><rect x="62" y="312" width="96" height="96"/></clipPath></defs><g clip-path="url(#clip0)" transform="translate(-62 -312)"><path d="M126 332 125.6 332C123.085 328.325 119.316 325.694 115 324.6L115 323C115 320.239 112.761 318 110 318 107.239 318 105 320.239 105 323L105 324.6C100.679 325.683 96.9061 328.317 94.4 332L94 332C91.7936 332.007 90.0066 333.794 90 336L90 340.3C90.0919 341.807 90.8188 343.205 92 344.146L92 394.255C92 399.055 99.907 402.811 110 402.811 120.093 402.811 128 399.053 128 394.255L128 344.146C129.181 343.205 129.908 341.807 130 340.3L130 336C129.993 333.794 128.206 332.007 126 332ZM96.064 333.109C98.2954 329.826 101.661 327.484 105.515 326.532L107 326.132 107 323C107 321.343 108.343 320 110 320 111.657 320 113 321.343 113 323L113 326.136 114.485 326.536C118.323 327.51 121.678 329.842 123.929 333.1L124.521 334 124.562 334.074C120.945 335.907 115.635 337 110 337 104.365 337 99.047 335.9 95.427 334.066L95.47 334ZM126 357.255C126 360.355 119.429 363.811 110 363.811 109.448 363.811 109 364.259 109 364.811 109 365.363 109.448 365.811 110 365.811 117.059 365.811 123.037 363.97 126 361.224L126 367.255C126 369.166 123.583 371.14 119.691 372.405 119.159 372.552 118.846 373.103 118.993 373.635 119.14 374.168 119.691 374.48 120.223 374.333 120.252 374.325 120.281 374.315 120.309 374.305 122.399 373.701 124.339 372.662 126 371.257L126 377.257C126 380.357 119.429 383.813 110 383.813 109.448 383.813 109 384.261 109 384.813 109 385.365 109.448 385.813 110 385.813 117.059 385.813 123.037 383.972 126 381.226L126 394.255C126 397.355 119.429 400.811 110 400.811 100.571 400.811 94 397.356 94 394.255L94 345.609C97.656 347.782 103.466 349.2 110 349.2 116.534 349.2 122.344 347.782 126 345.609ZM128 340.3C128 343.181 121.152 347.2 110 347.2 98.848 347.2 92 343.181 92 340.3L92 336C92.0012 335.502 92.1897 335.023 92.528 334.658 96.4 337.381 102.875 339 110 339 117.025 339 123.641 337.343 127.472 334.658 127.81 335.023 127.999 335.502 128 336Z"/></g></svg>