<svg width="96" height="96" xmlns="http://www.w3.org/2000/svg" xmlns:xlink="http://www.w3.org/1999/xlink" xml:space="preserve" overflow="hidden"><defs><clipPath id="clip0"><rect x="844" y="438" width="96" height="96"/></clipPath></defs><g clip-path="url(#clip0)" transform="translate(-844 -438)"><path d="M932.342 445.138 931.659 443.006C931.491 442.48 930.928 442.19 930.402 442.358 930.385 442.363 930.367 442.369 930.35 442.376L894.8 455.938 894.8 459.382 931.721 446.387C932.232 446.208 932.508 445.654 932.342 445.138Z"/><path d="M861.053 470.911 876.8 468.243 876.8 462.805 868 466.163C867.489 466.361 867.235 466.936 867.433 467.448 867.435 467.453 867.437 467.458 867.439 467.463L860.688 468.825C860.197 468.924 859.856 469.371 859.888 469.87L859.896 469.987C859.931 470.538 860.406 470.957 860.957 470.922 860.989 470.92 861.021 470.916 861.053 470.911Z"/><path d="M932.857 455.37C932.794 454.821 932.299 454.427 931.75 454.49 931.722 454.493 931.693 454.497 931.665 454.503L894.8 461.943 894.8 465.193 932.3 458.839C932.824 458.75 933.188 458.267 933.127 457.739Z"/><path d="M924.944 492.09C925.018 491.34 924.203 490.89 923.501 490.59 922.524 490.195 921.502 489.923 920.458 489.778 920.769 490.205 921.055 490.648 921.317 491.107L921.278 491.123C921.167 491.161 921.033 491.193 920.922 491.231L919.736 491.592C919.459 491.677 919.165 491.758 918.878 491.84 917.065 488.951 914.151 486.928 910.81 486.24 911.588 487.091 912.272 488.023 912.85 489.02 914.435 489.796 915.799 490.958 916.816 492.4 915.464 492.736 914.016 493.049 912.499 493.337 910.496 485.892 902.837 481.479 895.392 483.482 893.227 484.065 891.233 485.16 889.581 486.676 890.162 487.035 890.721 487.427 891.256 487.851 896.299 483.568 903.86 484.185 908.142 489.228 909.246 490.529 910.06 492.05 910.529 493.69 909.554 493.854 908.558 494.011 907.529 494.155 905.97 489.45 900.892 486.9 896.187 488.459 895.191 488.788 894.261 489.29 893.439 489.941 893.881 490.44 894.294 490.964 894.675 491.511 897.689 489.12 902.071 489.626 904.461 492.64 904.89 493.18 905.235 493.78 905.487 494.421 904.446 494.548 903.374 494.661 902.287 494.767 901.074 492.947 898.616 492.455 896.796 493.667 896.579 493.812 896.377 493.978 896.192 494.162 896.349 494.503 896.492 494.851 896.625 495.203 895.924 495.243 895.217 495.279 894.503 495.311 893.305 492.547 891.324 490.195 888.803 488.546L888.803 491.01C890.268 492.205 891.461 493.698 892.303 495.391 890.503 495.445 888.67 495.469 886.803 495.464L886.803 495.464 886.803 458.99 884.803 459.753 884.803 495.442C883.448 495.422 882.115 495.386 880.803 495.334L880.803 461.279 878.803 462.042 878.803 495.242C878.172 495.209 877.549 495.173 876.93 495.134L876.8 495 876.8 494.117C873.577 490.367 867.925 489.94 864.176 493.163 864.005 493.31 863.84 493.463 863.681 493.622 862.52 493.422 861.401 493.205 860.326 492.97 864.12 487.685 871.451 486.417 876.8 490.12L876.8 487.77C870.333 484.158 862.171 486.224 858.2 492.477 857.377 492.277 856.576 492.063 855.816 491.841L855.87 491.761C856.356 491.053 856.89 490.379 857.47 489.745 856.946 489.68 856.419 489.647 855.892 489.645 854.409 489.644 852.938 489.904 851.545 490.413 850.445 490.793 849.779 491.475 849.831 491.978 850.396 495.276 851.292 498.509 852.505 501.628 853.569 504.389 854.846 507.064 856.322 509.628 860.96 517.668 867.272 524.615 874.832 530L899.963 530C910.588 522.609 922.025 508.752 924.906 492.333ZM870 493C871.82 493.002 873.567 493.717 874.866 494.991 871.857 494.757 869.003 494.44 866.338 494.048 867.437 493.363 868.705 493 870 493ZM922.462 494.333C919.016 509.411 908.509 521.448 899.329 528L875.466 528C868.387 522.82 862.462 516.226 858.066 508.635 856.642 506.16 855.41 503.578 854.382 500.914 853.366 498.294 852.579 495.59 852.029 492.834 852.028 492.829 852.03 492.824 852.035 492.823 852.037 492.822 852.039 492.822 852.041 492.823L855.022 493.692C863.234 496.092 875.022 497.462 887.366 497.462 900.066 497.462 912.081 496.021 920.323 493.507L921.576 493.125 922.74 492.75C922.745 492.748 922.751 492.751 922.753 492.756 922.753 492.758 922.753 492.759 922.753 492.761Z"/><path d="M891.849 474C892.393 473.952 892.807 473.491 892.796 472.945L892.796 456.7 890.796 457.462 890.796 473C890.795 473.552 891.242 474.001 891.795 474.001 891.813 474.001 891.831 474.001 891.849 474Z"/></g></svg>