<svg width="96" height="96" xmlns="http://www.w3.org/2000/svg" xmlns:xlink="http://www.w3.org/1999/xlink" xml:space="preserve" overflow="hidden"><defs><clipPath id="clip0"><rect x="592" y="312" width="96" height="96"/></clipPath></defs><g clip-path="url(#clip0)" transform="translate(-592 -312)"><path d="M631.61 348.385C629.979 344.827 630.232 340.689 632.283 337.355 635.367 332.343 637 326.574 637 320.69L609 320.69 609 321.674C609 326.936 610.305 332.116 612.8 336.749L613.352 337.775C615.027 340.884 615.21 344.583 613.852 347.843L612.384 351.367C608.169 361.482 606 372.332 606 383.29L606 394.133C606 396.161 607.519 397.868 609.533 398.105L611.316 398.315C615.194 398.771 619.095 399 623 399 626.905 399 630.806 398.771 634.684 398.315L636.467 398.105C638.481 397.868 640 396.161 640 394.133L640 384.805C640 372.869 637.426 361.073 632.452 350.223ZM638 394.133C638 395.147 637.24 396.001 636.233 396.119L634.45 396.329C630.65 396.775 626.826 396.999 623 397 619.174 396.999 615.35 396.775 611.55 396.329L609.767 396.119C608.76 396.001 608 395.147 608 394.133L608 383.29C607.989 372.595 610.107 362.005 614.23 352.136L615.7 348.612C617.299 344.798 617.083 340.464 615.115 336.827L614.561 335.8C612.39 331.759 611.178 327.274 611.017 322.69L634.933 322.69C634.609 327.515 633.115 332.189 630.58 336.307 628.174 340.208 627.879 345.053 629.792 349.218L630.634 351.056C635.504 361.639 638.018 373.155 638 384.805Z"/><path d="M648 373.69 648 389.319C647.998 391.043 649.1 392.574 650.735 393.119L654 394.2 654 397.69 669 397.69 669 394.2 672.265 393.112C673.898 392.568 674.999 391.04 675 389.319L675 373.69ZM667 395.69 656 395.69 656 394 667 394 667 395.69ZM673 389.318C673.001 390.18 672.45 390.945 671.633 391.218L669.276 392 653.719 392 651.367 391.222C650.549 390.949 649.997 390.182 650 389.319L650 375.69 673 375.69Z"/></g></svg>