<svg width="96" height="96" xmlns="http://www.w3.org/2000/svg" xmlns:xlink="http://www.w3.org/1999/xlink" xml:space="preserve" overflow="hidden"><defs><clipPath id="clip0"><rect x="70" y="36" width="96" height="96"/></clipPath></defs><g clip-path="url(#clip0)" transform="translate(-70 -36)"><path d="M152.293 49.709C143.48 40.8951 129.191 40.8942 120.377 49.7069 120.377 49.7076 120.376 49.7083 120.375 49.709 115.116 54.9683 113 69.6855 109.937 75.2532 103.917 86.1917 98.22 86.8147 101.859 92.1621L94.0746 99.946C92.0565 95.7488 87.0181 93.9823 82.8209 96.0003 78.6237 98.0184 76.8572 103.057 78.8752 107.254 80.8933 111.451 85.9318 113.218 90.1289 111.2 90.9217 110.818 91.6499 110.316 92.2872 109.709 92.3761 109.625 92.3757 109.625 92.2913 109.714 89.075 113.105 89.2173 118.462 92.609 121.678 95.8781 124.778 101.003 124.774 104.267 121.668 106.652 119.288 107.432 115.737 106.262 112.576 105.584 110.499 104.055 108.808 102.056 107.925L109.839 100.142C110.696 100.817 111.737 101.217 112.826 101.29 115.988 101.29 118.184 96.6821 126.863 92.18 132.547 89.2323 147.037 86.8822 152.293 81.6256 161.106 72.8117 161.106 58.5229 152.293 49.709ZM100.642 106.51C99.8602 107.291 99.8599 108.558 100.641 109.339 100.802 109.5 100.989 109.632 101.195 109.73 104.395 111.273 105.739 115.118 104.196 118.318 102.654 121.518 98.8089 122.862 95.6086 121.32 92.4084 119.777 91.0645 115.932 92.6071 112.732 92.9227 112.077 93.3471 111.48 93.8622 110.967 94.6433 110.186 94.6433 108.92 93.8622 108.139 93.0812 107.358 91.8148 107.358 91.0337 108.139 88.5087 110.766 84.332 110.849 81.7047 108.324 79.0774 105.799 78.9944 101.622 81.5194 98.9952 84.0444 96.3679 88.2211 96.2849 90.8484 98.8099 91.4408 99.3792 91.9216 100.054 92.2662 100.8 92.738 101.799 93.9301 102.226 94.9288 101.754 95.1368 101.656 95.3262 101.523 95.4888 101.36L103.094 93.7547C103.766 94.5404 104.586 95.4147 105.588 96.4168 106.592 97.4205 107.462 98.2308 108.249 98.9022ZM150.879 80.2112C147.893 83.1973 140.824 85.3657 135.143 87.1084 131.994 87.9625 128.917 89.0646 125.942 90.4045 122.507 92.2001 119.302 94.4048 116.396 96.9705 114.803 98.3169 113.652 99.29 112.826 99.29 111.449 99.29 108.842 96.8433 107.002 95.0029 105.207 93.2078 102.809 90.6604 102.712 89.2744 102.654 88.4453 103.501 87.4077 105.128 85.4934 107.645 82.6487 109.845 79.5383 111.689 76.2173 113.148 73.0912 114.314 69.8366 115.171 66.4951 116.916 60.6472 118.893 54.019 121.79 51.123 129.857 43.1248 142.88 43.1804 150.879 51.2474 158.828 59.2654 158.828 72.193 150.879 80.2112Z"/></g></svg>