<svg width="96" height="96" xmlns="http://www.w3.org/2000/svg" xmlns:xlink="http://www.w3.org/1999/xlink" xml:space="preserve" overflow="hidden"><defs><clipPath id="clip0"><rect x="536" y="36" width="96" height="96"/></clipPath></defs><g clip-path="url(#clip0)" transform="translate(-536 -36)"><path d="M619.854 77.472C621.451 74.6741 620.947 71.1493 618.63 68.911 613.141 63.6689 606.527 59.7505 599.292 57.455 598.559 55.7533 597.079 54.4866 595.285 54.024 587.968 52.1 580.279 52.1 572.962 54.024 571.168 54.4866 569.688 55.7533 568.955 57.455 561.72 59.7501 555.106 63.6686 549.617 68.911 547.316 71.1344 546.803 74.6292 548.368 77.42 544.848 83.5785 542.998 90.5496 543 97.643 542.818 102.6 544.14 107.496 546.792 111.687 547.698 113.131 549.286 114.006 550.991 114 551.118 114 551.248 114 551.377 113.986 553.228 113.862 554.857 112.717 555.6 111.017 557.287 106.885 559.848 103.166 563.108 100.117 564.867 101.143 566.988 101.344 568.908 100.666 571.131 99.8905 573.41 99.2887 575.726 98.866 576.725 100.319 578.32 101.25 580.076 101.407 581.434 101.523 582.795 101.581 584.123 101.581 585.451 101.581 586.812 101.523 588.169 101.407 589.925 101.25 591.52 100.319 592.52 98.866 594.836 99.2888 597.115 99.8906 599.337 100.666 601.269 101.349 603.404 101.141 605.168 100.099 608.38 103.174 610.909 106.891 612.588 111.009 613.706 113.541 616.664 114.687 619.196 113.569 620.099 113.171 620.864 112.515 621.395 111.683 624.046 107.493 625.367 102.599 625.185 97.644 625.188 90.5714 623.351 83.6198 619.854 77.472ZM553.773 110.2C553.107 111.724 551.332 112.419 549.808 111.753 549.259 111.513 548.794 111.115 548.473 110.609 546.857 108.083 545 104.33 545 97.643 545 91.2874 546.565 85.0296 549.557 79.422L560.614 97.688C560.865 98.0944 561.157 98.4735 561.487 98.819 558.158 102.039 555.531 105.914 553.773 110.2ZM568.246 98.778C566.018 99.5629 563.545 98.6754 562.325 96.653L550.172 76.574C548.957 74.5641 549.301 71.9798 551 70.358 555.992 65.6005 561.951 61.9748 568.47 59.728 568.464 60.108 568.494 60.4876 568.559 60.862L574.718 96.451C574.75 96.637 574.81 96.812 574.859 96.991 572.615 97.4272 570.405 98.0244 568.246 98.778ZM588 99.415C586.725 99.523 585.432 99.581 584.124 99.581 582.816 99.581 581.524 99.523 580.247 99.415 578.45 99.2487 576.989 97.8946 576.687 96.115L570.527 60.526C570.174 58.4713 571.454 56.4887 573.471 55.963 580.454 54.1272 587.794 54.1272 594.777 55.963 596.794 56.4891 598.073 58.4716 597.72 60.526L591.56 96.11C591.26 97.8917 589.799 99.2485 588 99.415ZM600 98.778C597.842 98.0247 595.633 97.4274 593.39 96.991 593.438 96.812 593.498 96.637 593.53 96.451L599.69 60.862C599.755 60.4875 599.784 60.1079 599.779 59.728 606.298 61.975 612.256 65.6007 617.248 70.358 618.947 71.9799 619.291 74.5647 618.074 76.574L605.923 96.653C604.702 98.6757 602.228 99.5631 600 98.778ZM619.712 110.6C619.127 111.542 618.063 112.077 616.958 111.985 615.84 111.907 614.859 111.213 614.413 110.185 612.665 105.913 610.054 102.049 606.743 98.833 607.079 98.4816 607.378 98.0962 607.634 97.683L618.661 79.469C621.632 85.0662 623.186 91.3062 623.186 97.643 623.186 104.327 621.329 108.08 619.712 110.6Z"/></g></svg>