<svg width="96" height="96" xmlns="http://www.w3.org/2000/svg" xmlns:xlink="http://www.w3.org/1999/xlink" xml:space="preserve" overflow="hidden"><defs><clipPath id="clip0"><rect x="955" y="170" width="96" height="96"/></clipPath></defs><g clip-path="url(#clip0)" transform="translate(-955 -170)"><path d="M999.318 226 992.083 226C986.181 225.982 981.401 221.202 981.383 215.3L981.383 209 988.618 209C994.521 209.016 999.302 213.797 999.318 219.7ZM983.381 215.3C983.396 220.098 987.282 223.985 992.081 224L997.315 224 997.315 219.7C997.3 214.901 993.414 211.015 988.615 211L983.381 211Z"/><path d="M1006.01 242 1000.01 242C998.349 242 997.006 240.657 997.006 239 997.006 237.343 998.349 236 1000.01 236L1006.01 236C1007.66 236 1009.01 237.343 1009.01 239 1009.01 240.657 1007.66 242 1006.01 242ZM1000.01 238C999.454 238 999.006 238.448 999.006 239 999.006 239.552 999.454 240 1000.01 240L1006.01 240C1006.56 240 1007.01 239.552 1007.01 239 1007.01 238.448 1006.56 238 1006.01 238Z"/><path d="M1013.93 226 1006.69 226 1006.69 219.7C1006.71 213.795 1011.5 209.014 1017.4 209L1024.64 209 1024.64 215.3C1024.62 221.205 1019.83 225.986 1013.93 226ZM1008.69 224 1013.93 224C1018.73 223.985 1022.61 220.099 1022.63 215.3L1022.63 211 1017.4 211C1012.6 211.016 1008.72 214.902 1008.7 219.7Z"/><path d="M1003.06 254C1002.12 254.002 1001.21 253.733 1000.42 253.226 993.987 249.059 972.989 233.845 972.989 213.026 972.989 212.715 972.989 212.405 973.005 212.093 973.448 195.586 987.19 182.563 1003.7 183.007 1011.91 183.227 1019.67 186.816 1025.15 192.931 1030.7 199.082 1033.51 207.222 1032.93 215.484 1031.44 235.8 1011.65 249.542 1005.61 253.271 1004.85 253.748 1003.96 254 1003.06 254ZM1002.98 185C987.856 185.01 975.469 197.028 975 212.148 974.99 212.438 974.985 212.728 974.985 213.017 974.985 232.832 995.285 247.517 1001.51 251.543 1002.43 252.139 1003.62 252.15 1004.56 251.571 1010.39 247.966 1029.51 234.705 1030.93 215.337 1031.47 207.62 1028.85 200.016 1023.67 194.27 1018.63 188.592 1011.47 185.243 1003.88 185.014L1003.88 185.014C1003.58 185 1003.28 185 1002.98 185Z"/></g></svg>