<svg width="96" height="96" xmlns="http://www.w3.org/2000/svg" xmlns:xlink="http://www.w3.org/1999/xlink" xml:space="preserve" overflow="hidden"><defs><clipPath id="clip0"><rect x="388" y="36" width="96" height="96"/></clipPath></defs><g clip-path="url(#clip0)" transform="translate(-388 -36)"><path d="M475.782 66.576C472.021 66.576 469.711 72.676 469.711 77.051 469.711 80.563 471.098 82.293 472.306 83.151 472.565 83.3137 472.789 83.5253 472.967 83.774 473.191 84.1197 473.298 84.5279 473.273 84.939L472.691 104.839C472.796 106.481 474.155 107.76 475.8 107.765 475.869 107.765 475.938 107.765 476.009 107.758 477.599 107.64 478.85 106.351 478.92 104.758L478.336 84.944C478.312 84.5313 478.42 84.1217 478.645 83.775 478.84 83.5093 479.085 83.285 479.367 83.115 480.521 82.267 481.898 80.525 481.898 77.035 481.842 72.67 479.486 66.576 475.782 66.576ZM478.36 81.63C477.9 81.9158 477.501 82.2896 477.186 82.73 476.726 83.3948 476.499 84.1927 476.539 85L477.124 104.728C477.079 105.388 476.553 105.915 475.893 105.96 475.198 106.002 474.589 105.502 474.493 104.813L475.072 85C475.112 84.1961 474.888 83.4011 474.433 82.737 474.131 82.3109 473.749 81.9472 473.309 81.666 472.133 80.824 471.509 79.23 471.509 77.055 471.509 72.839 473.704 68.381 475.779 68.381 477.822 68.381 480.041 72.846 480.097 77.055 480.1 79.208 479.479 80.805 478.36 81.63Z"/><path d="M402.241 68.651 401.954 67.2 391.694 67.2 391.394 68.634C390.787 71.5642 390.442 74.5426 390.363 77.534 390.363 81.064 391.823 82.847 393.048 83.734L393.095 83.768 393.143 83.798 393.343 83.925C393.49 84.016 393.659 84.119 393.832 84.233 394.166 84.4613 394.36 84.8446 394.346 85.249L393.867 104.735C393.824 106.386 395.128 107.759 396.779 107.801 398.43 107.844 399.802 106.54 399.845 104.89 399.846 104.838 399.846 104.786 399.845 104.735L399.326 85.2C399.312 84.7958 399.505 84.4125 399.839 84.184 400.003 84.075 400.164 83.976 400.305 83.884L400.53 83.744 400.579 83.712 400.627 83.677C402.409 82.377 403.313 80.31 403.313 77.535L403.313 77.5 403.313 77.458C403.174 74.4998 402.816 71.5561 402.241 68.651ZM399.566 82.23C399.372 82.354 399.115 82.508 398.848 82.684 397.994 83.2546 397.495 84.2248 397.527 85.251L398.045 104.778C398.064 105.435 397.547 105.983 396.89 106.002 396.233 106.021 395.685 105.504 395.666 104.847 395.665 104.824 395.665 104.801 395.666 104.778L396.152 85.278C396.182 84.2523 395.681 83.2836 394.828 82.714 394.558 82.537 394.299 82.381 394.102 82.258 392.936 81.417 392.164 79.958 392.164 77.57 392.242 74.687 392.576 71.8166 393.164 68.993L394.022 68.993 394.022 78.428C394.052 78.7025 394.299 78.9005 394.574 78.8703 394.807 78.8447 394.99 78.6608 395.016 78.428L395.016 69 396.332 69 396.332 78.435C396.36 78.7098 396.605 78.9101 396.879 78.8826 397.116 78.8588 397.303 78.6716 397.327 78.435L397.327 69 398.627 69 398.627 78.435 398.627 78.435C398.627 78.7111 398.851 78.935 399.127 78.935 399.403 78.935 399.627 78.7111 399.627 78.435L399.627 69 400.485 69C401.042 71.8177 401.389 74.6729 401.523 77.542 401.513 79.927 400.741 81.373 399.566 82.23Z"/><path d="M468.73 63.7C468.743 62.2768 467.599 61.1128 466.176 61.1 466.161 61.0999 466.145 61.0999 466.13 61.1 465.514 61.122 462.415 61.664 461.923 70.124L461.1 84.51C461.1 85.632 462.386 86.27 463.417 86.673L462.6 104.567C462.716 106.351 464.194 107.74 465.982 107.746 466.052 107.746 466.123 107.746 466.193 107.739 467.927 107.62 469.295 106.216 469.368 104.479L468.727 85.834ZM466.086 105.942C465.244 106.001 464.503 105.39 464.402 104.552L465.274 85.446 464.536 85.172C463.954 85.0031 463.404 84.7388 462.908 84.39L463.722 70.229C464.054 64.52 465.662 62.999 466.187 62.899 466.609 62.9099 466.942 63.2606 466.931 63.6824 466.931 63.6836 466.931 63.6848 466.931 63.686L466.931 85.85 467.574 104.45C467.526 105.252 466.888 105.892 466.086 105.942Z"/><path d="M432 56C417.088 56 405 68.0883 405 83 405 97.9117 417.088 110 432 110 446.912 110 459 97.9117 459 83 459 68.0883 446.912 56 432 56ZM432 108C418.193 108 407 96.8071 407 83 407 69.1929 418.193 58 432 58 445.807 58 457 69.1929 457 83 456.985 96.8007 445.801 107.985 432 108Z"/><path d="M432 64C421.507 64 413 72.5066 413 83 413 93.4934 421.507 102 432 102 442.493 102 451 93.4934 451 83 450.988 72.5114 442.489 64.0116 432 64ZM432 100C422.611 100 415 92.3888 415 83 415 73.6112 422.611 66 432 66 441.389 66 449 73.6112 449 83 448.99 92.3845 441.384 99.9895 432 100Z"/></g></svg>