<svg width="96" height="96" xmlns="http://www.w3.org/2000/svg" xmlns:xlink="http://www.w3.org/1999/xlink" xml:space="preserve" overflow="hidden"><defs><clipPath id="clip0"><rect x="700" y="502" width="96" height="96"/></clipPath></defs><g clip-path="url(#clip0)" transform="translate(-700 -502)"><path d="M785.871 545.465C789.226 542.764 789.756 537.855 787.055 534.5 785.658 532.765 783.585 531.71 781.36 531.601 785.306 529.947 787.504 531.157 787.536 531.177L788.056 530.322 788.587 529.474C786.875 528.624 784.909 528.435 783.066 528.945 781.57 526.955 779.584 525.386 777.303 524.391 778.251 522.89 778.789 521.167 778.863 519.393 779.243 515.458 775.769 512.232 775.372 511.877L774.208 510.837 772.917 511.713C772.546 511.978 772.204 512.281 771.895 512.616 768.287 509.825 762.792 509.673 761.651 509.673L761.592 509.673 760.064 509.69 759.679 511.169C759.296 512.839 759.228 514.565 759.478 516.259 755.766 516.805 752.345 518.583 749.764 521.307L749.169 521.973 749.268 522.86C749.307 523.183 749.367 523.503 749.448 523.819 745.556 525.558 743.802 530.115 745.521 534.015 743.064 534.291 740.889 535.729 739.671 537.88 738.861 537.131 738.015 536.39 737.128 535.619 736.396 534.983 735.636 534.322 734.87 533.631 733.134 531.726 731.661 529.596 730.491 527.3 728.022 522.999 725.467 518.55 721.264 519.855 721.227 519.866 721.181 519.885 721.142 519.898 721.657 518.03 722.824 516.409 724.432 515.329 724.576 515.221 724.702 515.124 724.808 515.038L723.548 513.486C723.457 513.559 723.347 513.642 723.224 513.736 722.04 514.573 721.031 515.633 720.254 516.857 719.864 515.865 719.234 514.984 718.421 514.294 717.066 513.309 715.42 512.81 713.747 512.876 713.298 512.872 712.85 512.902 712.406 512.965 712.406 512.965 712.589 516.636 714.976 518.563 716.151 519.458 717.582 519.953 719.059 519.974 718.996 520.29 718.943 520.616 718.907 520.96 718.287 520.895 717.659 520.961 717.066 521.154 712.305 522.626 712.894 527.741 713.465 532.688 713.768 535.318 714.081 538.038 713.625 540.18L713.208 541.884C712.974 542.835 712.744 543.773 712.528 544.697 707.172 546.234 704.001 548.14 704.001 550.225L704.001 550.925C704.001 564.589 710.469 576.76 722.001 583.925L722.001 586.457C721.996 588.456 723.471 590.149 725.451 590.42 732.929 591.393 740.46 591.895 748.001 591.924 755.537 591.895 763.065 591.393 770.539 590.42 772.52 590.149 773.994 588.456 773.99 586.457L773.99 583.925C785.521 576.76 791.99 564.588 791.99 550.925L791.99 550.225C791.99 548.475 789.757 546.85 785.871 545.465ZM716.232 517.006C715.607 516.452 715.139 515.744 714.875 514.953 715.705 515.041 716.496 515.351 717.166 515.85 717.798 516.405 718.27 517.12 718.532 517.919 717.695 517.834 716.899 517.518 716.232 517.006ZM749.346 555.918C748.43 555.016 747.85 553.828 747.702 552.551 747.696 552.51 747.693 552.469 747.687 552.428 747.384 549.599 749.186 546.97 751.934 546.233 753.315 547.749 755.236 548.662 757.284 548.775 756.578 551.068 756.968 553.559 758.34 555.527 758.366 555.564 758.396 555.598 758.424 555.633 755.475 555.8 752.436 555.896 749.346 555.918ZM773.865 536.14C772.874 538.304 772.923 540.802 773.998 542.925 773.374 543.15 772.782 543.454 772.236 543.831 771.422 544.399 770.725 545.119 770.182 545.951 770.017 545.965 769.853 545.988 769.688 545.988 766.475 545.997 763.864 543.4 763.855 540.188 763.846 536.975 766.443 534.363 769.655 534.354 771.243 534.35 772.764 534.995 773.865 536.14ZM765.21 533.761C763.809 534.737 762.769 536.147 762.251 537.773 759.049 537.517 756.661 534.713 756.917 531.511 757.173 528.309 759.977 525.92 763.179 526.177 766.382 526.433 768.77 529.237 768.514 532.439 768.514 532.44 768.513 532.442 768.513 532.443 767.325 532.622 766.195 533.073 765.21 533.761ZM761.883 539.75C761.809 541.063 762.071 542.373 762.645 543.556 761.799 543.779 760.998 544.148 760.277 544.644 759.462 545.213 758.765 545.933 758.222 546.765 758.057 546.779 757.892 546.801 757.728 546.801 754.516 546.804 751.909 544.202 751.907 540.989 751.905 539.087 752.834 537.304 754.395 536.215 754.816 535.922 755.275 535.687 755.759 535.518 755.922 535.844 756.107 536.157 756.313 536.458 757.607 538.308 759.638 539.508 761.883 539.75ZM760.964 555.47C758.525 553.385 758.239 549.717 760.324 547.278 761.217 546.234 762.451 545.54 763.807 545.319 765.192 546.893 767.151 547.845 769.243 547.961 768.562 550.186 768.911 552.599 770.193 554.541 767.281 554.928 764.187 555.24 760.964 555.47ZM772.48 554.217C772.284 554.015 772.103 553.799 771.94 553.569 770.098 550.954 770.726 547.34 773.341 545.499 773.897 545.108 774.516 544.818 775.172 544.641 776.655 546.276 778.759 547.209 780.966 547.21 781.191 547.21 781.411 547.178 781.634 547.159 782.587 548.686 782.776 550.57 782.148 552.256 778.963 553.087 775.736 553.742 772.48 554.217ZM783.747 546.876C787.09 547.914 788.759 548.906 789.491 549.553 787.853 550.39 786.144 551.078 784.383 551.608 784.671 550.003 784.449 548.348 783.747 546.876ZM785.73 536.065C787.568 538.699 786.922 542.325 784.288 544.162 781.654 546 778.029 545.354 776.191 542.72 774.354 540.086 774.999 536.461 777.633 534.623 778.608 533.943 779.767 533.578 780.956 533.577 782.858 533.575 784.642 534.505 785.73 536.065ZM781.017 529.563C779.86 530.025 778.753 530.601 777.711 531.283 777.932 529.734 777.824 528.156 777.392 526.652 778.772 527.386 780.002 528.374 781.017 529.563ZM751.255 522.64C751.255 522.64 755.24 518.179 760.916 518.179 761.257 518.179 761.604 518.195 761.956 518.229 762.021 518.235 762.084 518.247 762.149 518.254 761.286 516.171 761.099 513.869 761.613 511.673L761.651 511.673C762.182 511.673 768.286 511.74 771.334 514.78 771.628 515.075 771.894 515.398 772.127 515.744 772.57 514.814 773.224 514 774.039 513.368 774.039 513.368 777.165 516.16 776.871 519.201 776.83 520.687 776.379 522.133 775.569 523.379 775.497 523.47 775.433 523.567 775.377 523.669 773.16 523.034 770.844 522.813 768.547 523.019 767.997 523.063 767.586 523.545 767.63 524.096 767.674 524.647 768.156 525.058 768.706 525.014 770.831 524.817 772.973 525.035 775.013 525.655 774.995 526.052 775.089 526.446 775.284 526.793 775.832 528.171 775.981 529.676 775.716 531.135 775.574 532.2 775.125 533.2 774.423 534.014 773.293 533.125 771.937 532.568 770.508 532.404 770.613 530.665 770.128 528.942 769.132 527.512 767.668 525.417 765.273 524.169 762.718 524.168L762.718 524.168C761.155 524.169 759.629 524.641 758.338 525.522 756.554 523.625 753.931 522.759 751.367 523.22 751.32 523.029 751.282 522.835 751.255 522.64ZM749.368 526.145C751.695 524.518 754.858 524.815 756.841 526.847 755.212 528.705 754.559 531.225 755.081 533.64 753.537 534.181 752.208 535.203 751.288 536.555 748.172 535.78 746.275 532.626 747.05 529.511 747.39 528.146 748.214 526.95 749.368 526.146ZM743.117 536.992C744.091 536.311 745.251 535.945 746.44 535.946 746.539 535.946 746.638 535.958 746.737 535.963 747.695 537.091 748.953 537.923 750.366 538.363 750.219 538.77 750.106 539.189 750.028 539.615 749.729 541.284 749.985 543.004 750.757 544.513 750.134 544.739 749.543 545.044 748.999 545.422 747.986 546.127 747.156 547.063 746.578 548.153 746.08 546.787 745.483 545.459 744.792 544.18 743.819 542.404 742.599 540.774 741.17 539.34 741.596 538.397 742.268 537.586 743.117 536.992ZM715.151 542.361 715.575 540.623C716.105 538.133 715.773 535.248 715.452 532.458 714.848 527.224 714.696 523.98 717.657 523.064 718.109 522.884 718.61 522.872 719.07 523.03 719.651 523.277 720.326 523.069 720.668 522.538 720.959 522.147 721.38 521.873 721.856 521.764 724.349 520.999 726.128 523.716 728.756 528.294 730.02 530.771 731.619 533.061 733.51 535.099 734.305 535.816 735.075 536.485 735.815 537.129 738.871 539.785 741.285 541.883 743.031 545.127 744.33 547.421 745.23 549.92 745.69 552.517 745.705 552.687 745.725 552.855 745.751 553.022 745.875 553.98 745.92 554.947 745.886 555.912 733.163 555.77 721.365 554.35 713.318 552.111 713.643 548.814 714.257 545.551 715.151 542.361ZM711.347 551.522C709.678 551.007 708.057 550.347 706.503 549.549 708.163 548.331 710.042 547.445 712.037 546.937 711.712 548.45 711.482 549.981 711.347 551.522ZM770.274 588.438C762.888 589.398 755.449 589.894 748.001 589.925 740.549 589.895 733.106 589.398 725.717 588.438 724.731 588.298 723.998 587.453 724.001 586.457L724.001 584.407C731.976 585.382 740.002 585.889 748.036 585.924 756.044 585.925 764.044 585.43 771.99 584.443L771.99 586.457C771.992 587.453 771.26 588.298 770.274 588.438ZM772.935 582.226 772.771 582.327C764.57 583.394 756.307 583.928 748.036 583.925 739.716 583.89 731.406 583.343 723.154 582.286L723.056 582.226C712.391 575.599 706.215 564.443 706.019 551.552 713.787 555.45 729.907 557.925 748.001 557.925 766.085 557.925 782.199 555.452 789.971 551.558 789.774 564.446 783.598 575.6 772.935 582.226Z"/></g></svg>