<svg width="96" height="96" xmlns="http://www.w3.org/2000/svg" xmlns:xlink="http://www.w3.org/1999/xlink" xml:space="preserve" overflow="hidden"><defs><clipPath id="clip0"><rect x="210" y="466" width="96" height="96"/></clipPath></defs><g clip-path="url(#clip0)" transform="translate(-210 -466)"><path d="M270.014 500C267.469 500.009 264.929 500.209 262.414 500.6L248.011 493C248.117 496.506 248.862 499.962 250.211 503.2 241.611 505.4 233.511 508 228.011 508L214.011 500C214.011 505.5 217.011 514 217.011 514 217.011 514 214.011 522.5 214.011 528L228.011 520C233.511 520 241.611 522.6 250.211 524.8 248.862 528.037 248.117 531.494 248.011 535L262.411 527.4C264.926 527.791 267.466 527.991 270.011 528 282.711 528 302.011 518.5 302.011 514 302.011 509.5 282.715 500 270.014 500ZM289.491 521.077C282.614 524.161 275.332 526 270.014 526 267.57 525.991 265.129 525.798 262.714 525.423L262.061 525.323 261.476 525.631 250.351 531.506C250.628 529.49 251.189 527.523 252.016 525.664L253.064 523.464 250.707 522.864C248.83 522.384 246.963 521.881 245.157 521.395 238.4 519.574 232.565 518 228.008 518L227.477 518 227.016 518.263 216.354 524.357C216.959 521.068 217.807 517.829 218.893 514.667L219.127 514 218.893 513.335C217.806 510.173 216.957 506.934 216.353 503.645L227.016 509.737 227.477 510 228.008 510C232.565 510 238.4 508.428 245.157 506.608 246.963 506.121 248.83 505.618 250.707 505.138L253.064 504.538 252.016 502.338C251.19 500.48 250.631 498.514 250.354 496.5L261.479 502.37 262.064 502.678 262.717 502.578C265.133 502.204 267.573 502.011 270.017 502.001 275.335 502.001 282.617 503.842 289.494 506.926 296.857 510.226 299.76 513.119 300.013 514.002 299.757 514.884 296.854 517.776 289.491 521.077Z"/><path d="M289.016 511.002C289.016 512.107 288.121 513.002 287.016 513.002 285.911 513.002 285.016 512.107 285.016 511.002 285.016 509.897 285.911 509.002 287.016 509.002 288.121 509.002 289.016 509.897 289.016 511.002Z"/></g></svg>