<svg width="96" height="96" xmlns="http://www.w3.org/2000/svg" xmlns:xlink="http://www.w3.org/1999/xlink" xml:space="preserve" overflow="hidden"><defs><clipPath id="clip0"><rect x="592" y="312" width="96" height="96"/></clipPath></defs><g clip-path="url(#clip0)" transform="translate(-592 -312)"><path d="M596 382.9C595.448 382.899 595.001 382.45 595.002 381.898 595.003 381.516 595.222 381.167 595.566 381L623.866 367.4C625.427 366.494 627.196 366.009 629 365.992L653 365.992C655.761 365.992 658 368.231 658 370.992 658 373.753 655.761 375.992 653 375.992L635 375.992C634.448 375.992 634 375.544 634 374.992 634 374.44 634.448 373.992 635 373.992L653 373.992C654.657 373.992 656 372.649 656 370.992 656 369.335 654.657 367.992 653 367.992L629 367.992C627.522 368.005 626.073 368.408 624.8 369.16L596.434 382.8C596.299 382.866 596.15 382.9 596 382.9Z"/><path d="M610 396.9C609.448 396.9 609 396.452 609 395.9 609 395.635 609.106 395.38 609.293 395.193 615.46 389.025 623.773 385.9 634 385.9L652.7 385.9C653.356 385.897 653.994 385.682 654.518 385.287L681.948 365.232C682.585 364.615 682.961 363.777 683 362.891 683 361.234 681.657 359.891 680 359.891 679.453 359.875 678.914 360.026 678.455 360.323L661.3 370.16C660.815 370.424 660.208 370.246 659.943 369.761 659.687 369.29 659.846 368.701 660.306 368.425L677.406 358.625C678.178 358.128 679.081 357.872 680 357.89 682.76 357.893 684.997 360.13 685 362.89 684.967 364.334 684.359 365.705 683.312 366.7L683.194 366.8 655.694 386.906C654.828 387.548 653.779 387.896 652.7 387.9L634 387.9C624.321 387.9 616.483 390.831 610.706 396.61 610.518 396.796 610.264 396.901 610 396.9Z"/><path d="M652.5 328C656 328 659 331.692 659 334.715 659 341.881 649.1 351.48 644 355.662 638.9 351.485 629 341.892 629 334.715 629.076 332.993 629.788 331.36 631 330.134 632.148 328.841 633.772 328.07 635.5 328 638.041 328 640.363 329.942 642.214 333.615L643.991 337.141C643.996 337.151 644.004 337.151 644.009 337.141L645.786 333.615C647.637 329.942 649.959 328 652.5 328M652.5 326C649.6 326 646.47 327.826 644.009 332.7 644.004 332.709 643.996 332.709 643.991 332.7 641.531 327.827 638.4 326 635.5 326 630.972 326 627 330.45 627 334.715 627 345.215 644 358.215 644 358.215 644 358.215 661 345.215 661 334.715 661 330.451 657.028 326 652.5 326Z"/></g></svg>