<svg width="96" height="96" xmlns="http://www.w3.org/2000/svg" xmlns:xlink="http://www.w3.org/1999/xlink" xml:space="preserve" overflow="hidden"><defs><clipPath id="clip0"><rect x="964" y="38" width="96" height="96"/></clipPath></defs><g clip-path="url(#clip0)" transform="translate(-964 -38)"><path d="M1044.7 60 1031.41 60 1036.67 54.747C1037.06 54.3689 1037.09 53.7505 1036.74 53.332 1036.38 52.9211 1035.74 52.8872 1035.33 53.2562 1035.32 53.2681 1035.31 53.2804 1035.29 53.293L1028.59 60 979.2 60C978.895 60.0165 978.661 60.2772 978.678 60.5821 978.684 60.6983 978.727 60.8095 978.8 60.9L1009 92 1009 111.374C1008.96 112.86 1007.87 114.108 1006.41 114.345 1002.6 114.848 1000 115.848 1000 117 1000 118.657 1005.37 120 1012 120 1018.63 120 1024 118.657 1024 117 1024 115.848 1021.4 114.848 1017.59 114.345 1016.13 114.108 1015.04 112.86 1015 111.374L1015 92 1045.1 60.9C1045.3 60.6789 1045.28 60.3381 1045.06 60.1388 1044.96 60.0495 1044.83 60.0001 1044.7 60ZM1026.59 62 1020.59 68 988.486 68 982.676 62.017C982.667 62.008 982.676 62 982.684 62ZM1013 111.374C1013.02 113.886 1014.88 116.002 1017.37 116.333 1018.48 116.468 1019.57 116.688 1020.64 116.993 1020.65 116.995 1020.65 117 1020.65 117.006 1020.65 117.009 1020.65 117.011 1020.64 117.012 1017.82 117.731 1014.91 118.064 1012 118 1009.09 118.064 1006.18 117.731 1003.36 117.012 1003.35 117.01 1003.35 117.005 1003.35 116.999 1003.35 116.996 1003.35 116.994 1003.36 116.993 1004.43 116.688 1005.52 116.468 1006.63 116.333 1009.12 116.002 1010.98 113.886 1011 111.374L1011 91.189 1010.43 90.607 990.424 70 1018.59 70 1014.75 73.833C1013.6 73.0624 1012.17 72.8087 1010.82 73.133 1009.04 73.6379 1007.64 75.033 1007.14 76.818 1006.81 78.1686 1007.07 79.5933 1007.84 80.749L1006.34 82.249C1005.95 82.6213 1005.91 83.2303 1006.25 83.649 1006.61 84.0682 1007.24 84.1164 1007.66 83.7568 1007.68 83.7402 1007.7 83.723 1007.71 83.705L1009.25 82.165C1010.41 82.9356 1011.83 83.1893 1013.18 82.865 1014.97 82.3601 1016.37 80.965 1016.87 79.18 1017.19 77.8294 1016.94 76.4047 1016.17 75.249L1021.41 70 1033.51 70 1013.56 90.609 1013 91.191 1013 111.374ZM1009.06 78.587C1008.74 76.9575 1009.8 75.3766 1011.43 75.056 1011.81 74.9806 1012.2 74.9806 1012.59 75.056 1013.75 75.3453 1014.65 76.2519 1014.94 77.413 1015.26 79.0425 1014.2 80.6234 1012.57 80.944 1012.19 81.0194 1011.8 81.0194 1011.41 80.944 1010.25 80.6547 1009.35 79.7481 1009.06 78.587ZM1035.44 68 1023.41 68 1029.41 62 1041.23 62C1041.24 62 1041.24 62.008 1041.24 62.017Z"/></g></svg>