<svg width="96" height="96" xmlns="http://www.w3.org/2000/svg" xmlns:xlink="http://www.w3.org/1999/xlink" xml:space="preserve" overflow="hidden"><defs><clipPath id="clip0"><rect x="220" y="170" width="96" height="96"/></clipPath></defs><g clip-path="url(#clip0)" transform="translate(-220 -170)"><path d="M250 237.6C253.1 237.6 256.1 237.2 259 236.3 255.4 232.4 250.8 229.6 245.7 228.1 243.5 227.5 241.3 227.3 239 227.3 235.9 227.3 232.9 227.7 230 228.6 233.6 232.5 238.2 235.3 243.3 236.8 245.5 237.4 247.7 237.6 250 237.6ZM239 229.3C241.1 229.3 243.1 229.5 245.1 230.1 248.7 231.1 252 232.9 254.8 235.3 253.2 235.6 251.5 235.7 249.8 235.7 247.7 235.7 245.7 235.5 243.7 234.9 240.1 233.9 236.8 232.1 234 229.7 235.7 229.4 237.4 229.3 239 229.3Z"/><path d="M250.2 227.2C249 222 246.4 217.3 242.8 213.4 238.9 209.8 234.2 207.2 229 206 230.2 211.2 232.8 215.9 236.4 219.8 240.3 223.4 245 226 250.2 227.2ZM241.4 214.8C244 217.5 245.9 220.7 247.2 224.2 243.7 222.9 240.5 221 237.8 218.4 235.2 215.7 233.3 212.5 232 209 235.5 210.3 238.7 212.3 241.4 214.8L241.4 214.8Z"/><path d="M247.4 215.2C248.9 210.1 249.1 204.7 247.9 199.5 246.4 194.4 243.6 189.8 239.7 186.2 238.2 191.3 238 196.7 239.2 201.9 240.7 207 243.5 211.6 247.4 215.2ZM240.8 190.3C243.2 193.1 244.9 196.5 246 200 246.9 203.6 247 207.4 246.3 211.1 243.9 208.3 242.2 204.9 241.1 201.4 240.3 197.8 240.1 194 240.8 190.3Z"/><path d="M259.9 194.2C261.1 189 260.9 183.6 259.4 178.5 255.5 182.1 252.7 186.7 251.2 191.8 250 197 250.2 202.4 251.7 207.5 255.5 203.9 258.4 199.3 259.9 194.2ZM253.1 192.3C254.1 188.7 255.9 185.4 258.3 182.6 259 186.3 258.8 190 258 193.7 257 197.3 255.2 200.6 252.8 203.4 252.1 199.7 252.3 195.9 253.1 192.3L253.1 192.3Z"/><path d="M290.3 228.1C285.2 229.6 280.6 232.4 277 236.3 279.9 237.2 283 237.6 286 237.6 288.2 237.6 290.5 237.3 292.7 236.8 297.8 235.3 302.4 232.5 306 228.6 303.1 227.7 300.1 227.2 297 227.2 294.7 227.2 292.5 227.5 290.3 228.1ZM292.2 234.9C290.2 235.4 288.1 235.7 286.1 235.7 284.4 235.7 282.8 235.6 281.1 235.3 283.9 232.9 287.3 231.1 290.8 230.1 292.8 229.6 294.9 229.3 297 229.3 298.7 229.3 300.3 229.5 302 229.7 299.1 232.1 295.8 233.9 292.2 234.9Z"/><path d="M307 206C301.8 207.2 297.1 209.8 293.2 213.4 289.5 217.3 287 222 285.8 227.2 291 226 295.7 223.4 299.6 219.8 303.2 215.9 305.8 211.2 307 206ZM288.8 224.2C290.1 220.7 292 217.5 294.6 214.8 297.3 212.2 300.5 210.3 304 209 302.7 212.5 300.8 215.7 298.2 218.4 295.5 220.9 292.3 222.9 288.8 224.2Z"/><path d="M296.9 201.9C298.1 196.7 297.9 191.3 296.4 186.2 292.5 189.8 289.7 194.4 288.2 199.5 287 204.7 287.2 210.1 288.7 215.2 292.5 211.6 295.4 207 296.9 201.9ZM290.1 200C291.1 196.4 292.9 193.1 295.3 190.3 296 194 295.8 197.8 295 201.4 294 205 292.2 208.3 289.8 211.1 289.1 207.4 289.3 203.6 290.1 200L290.1 200Z"/><path d="M284.4 207.5C285.9 202.4 286.1 197 284.9 191.8 283.4 186.7 280.6 182.1 276.7 178.5 275.2 183.6 275 189 276.2 194.2 277.7 199.3 280.5 203.9 284.4 207.5ZM277.8 182.6C280.2 185.4 282 188.8 283 192.3 283.9 195.9 284 199.7 283.3 203.4 280.9 200.6 279.2 197.3 278.1 193.7 277.3 190.3 277.1 186.8 277.6 183.4 277.7 183.1 277.8 182.6 277.8 182.6Z"/><path d="M282.2 239.6C280 239 277.7 238.7 275.4 238.7 273.9 238.7 272.5 238.8 271 239 269.2 237.6 266.7 237.6 264.9 239 263.4 238.8 261.9 238.7 260.3 238.7 258.1 238.7 255.9 239 253.7 239.5 248.6 241 244 243.8 240.4 247.7 243.3 248.6 246.4 249 249.4 249 251.6 249 253.9 248.7 256.1 248.2 257.4 247.8 258.7 247.4 259.9 246.8 258.4 249.1 256.3 250.9 253.8 251.9L256.1 257.4C261.5 255.1 263.8 251.7 265.9 248.7 266.1 248.4 266.3 248.1 266.6 247.8 267.5 248.1 268.5 248.1 269.4 247.8 269.6 248.1 269.9 248.4 270.1 248.8 272.1 251.8 274.4 255.2 279.9 257.5L282.2 252C279.7 251 277.6 249.2 276.1 246.9 277.3 247.4 278.6 247.9 279.9 248.3 282.1 248.9 284.3 249.1 286.6 249.1 289.7 249.1 292.7 248.7 295.6 247.8 292 243.9 287.3 241.1 282.2 239.6ZM259.1 245C258 245.5 256.8 245.9 255.7 246.3 253.7 246.8 251.7 247.1 249.6 247 247.9 247 246.3 246.9 244.6 246.6 247.4 244.2 250.7 242.4 254.3 241.4 256.3 240.9 258.3 240.7 260.4 240.7 261.4 240.7 262.5 240.8 263.5 240.9 263.2 241.6 263 242.3 263 243 263 243 263 243.1 263 243.1L259.1 245ZM264.6 247.2 264.3 247.6 264.2 247.8C262.5 250.3 260.7 252.8 257.2 254.7L256.4 252.9C258.5 251.7 260.2 250 261.6 248L263.5 245.3C263.8 245.9 264.3 246.5 264.8 246.9 264.8 247 264.7 247.1 264.6 247.2L264.6 247.2ZM265 243C265 241.3 266.3 240 268 240 269.7 240 271 241.3 271 243 271 244.7 269.7 246 268 246 266.3 246 265 244.7 265 243ZM279.7 252.9 279 254.7C275.3 252.7 273.6 250.1 271.9 247.6 271.7 247.3 271.5 247.1 271.3 246.8 271.8 246.3 272.3 245.8 272.6 245.1L274.7 248C275.9 250 277.7 251.7 279.7 252.9ZM286.7 247C284.6 247 282.6 246.8 280.6 246.3 279.4 245.9 278.2 245.5 277 245L273 243.3C273 243.2 273 243.1 273 243 273 242.3 272.8 241.6 272.5 240.9 273.5 240.8 274.4 240.7 275.4 240.7 277.5 240.7 279.6 241 281.7 241.5 285.3 242.5 288.6 244.2 291.5 246.6 289.9 246.9 288.3 247 286.7 247Z"/></g></svg>