<svg width="96" height="96" xmlns="http://www.w3.org/2000/svg" xmlns:xlink="http://www.w3.org/1999/xlink" xml:space="preserve" overflow="hidden"><defs><clipPath id="clip0"><rect x="532" y="466" width="96" height="96"/></clipPath></defs><g clip-path="url(#clip0)" transform="translate(-532 -466)"><path d="M562.07 469.811 547.132 469C547.089 468.997 547.047 468.996 547.005 468.996 545.95 468.997 545.077 469.818 545.011 470.871 545.008 470.914 545.007 470.957 545.007 471L545 555.5C545 556.881 546.119 558 547.5 558L547.671 558C548.983 558 550.072 556.986 550.165 555.677L552.003 529.871C552.203 522.053 555.229 515.393 561.829 512.471 562.545 512.151 563.005 511.438 563.002 510.653 562.999 510.224 562.651 509.877 562.222 509.876L553.007 509.871 553.007 507.871 562.007 507.871C562.559 507.871 563.007 507.423 563.007 506.871 563.007 506.319 562.559 505.871 562.007 505.871L553.007 505.871 553.007 503.871 562.007 503.871C562.559 503.871 563.007 503.423 563.007 502.871 563.007 502.319 562.559 501.871 562.007 501.871L553.007 501.871 553.007 499.871 562.007 499.871C562.559 499.871 563.007 499.423 563.007 498.871 563.007 498.319 562.559 497.871 562.007 497.871L553.007 497.871 553.007 495.871 562.007 495.871C562.559 495.871 563.007 495.423 563.007 494.871 563.007 494.319 562.559 493.871 562.007 493.871L553.007 493.871 553.007 491.871 562.007 491.871C562.559 491.871 563.007 491.423 563.007 490.871 563.007 490.319 562.559 489.871 562.007 489.871L553.007 489.871 553.007 487.871 562.007 487.871C562.559 487.871 563.007 487.423 563.007 486.871 563.007 486.319 562.559 485.871 562.007 485.871L553.007 485.871 553.007 483.871 562.007 483.871C562.559 483.871 563.007 483.423 563.007 482.871 563.007 482.319 562.559 481.871 562.007 481.871L553.007 481.871 553.007 479.871 562.007 479.871C562.559 479.871 563.007 479.423 563.007 478.871 563.007 478.319 562.559 477.871 562.007 477.871L553.007 477.871 553.007 475.871 562.007 475.871C562.559 475.871 563.007 475.423 563.007 474.871 563.007 474.319 562.559 473.871 562.007 473.871L553.007 473.871 553.007 471.871 562.227 471.871C562.658 471.871 563.007 471.522 563.007 471.091L563.007 470.811C563.008 470.282 562.597 469.844 562.07 469.811ZM558.68 511.874C558.698 511.874 558.7 511.882 558.685 511.892 553.281 515.339 550.225 521.584 550.004 529.774L548.17 555.535C548.151 555.797 547.933 555.999 547.672 556L547.5 556C547.224 556 547 555.776 547 555.5L547.004 470.996 547.005 470.996 547.023 470.997 551.007 471.214 551.007 511.87 553.006 511.871Z"/><path d="M620.925 468.892C620.636 467.794 619.651 467.024 618.516 467.009 615.04 466.912 611.715 468.431 609.513 471.122L609.435 471.21C609.071 471.663 608.744 472.143 608.456 472.647 607.935 473.201 607.187 473.481 606.431 473.407L605.684 473.32C599.776 472.858 594.612 477.272 594.149 483.181 593.875 486.694 595.342 490.118 598.076 492.341L592.971 507.641 587.87 492.351C592.619 488.577 593.409 481.667 589.634 476.918 585.86 472.169 578.95 471.379 574.201 475.154 569.452 478.928 568.662 485.838 572.437 490.587 574.461 493.133 577.509 494.651 580.76 494.733L588.792 520.283 578.388 556.773C577.959 558.086 578.676 559.498 579.989 559.927 581.287 560.351 582.685 559.656 583.131 558.366L592.971 531.826 602.8 558.329C603.137 559.356 604.094 560.051 605.175 560.054 606.56 560.052 607.681 558.928 607.679 557.543 607.678 557.294 607.641 557.047 607.568 556.809L597.154 520.278 605.187 494.727C605.357 494.723 605.527 494.714 605.698 494.702 611.609 494.223 616.012 489.043 615.533 483.132 615.376 481.195 614.696 479.336 613.565 477.754 612.659 476.468 612.825 474.712 613.958 473.619 615.166 472.511 616.765 471.928 618.403 471.999 619.783 472.053 620.945 470.978 620.998 469.598 621.008 469.36 620.983 469.122 620.925 468.892ZM582.215 492.691 581.445 492.726C576.489 492.952 572.288 489.117 572.062 484.161 571.836 479.205 575.67 475.003 580.627 474.777 585.583 474.551 589.784 478.386 590.01 483.342 590.152 486.443 588.683 489.397 586.125 491.155L585.505 491.582 591.917 510.801 589.861 517.013ZM605.655 557.394C605.741 557.658 605.597 557.942 605.333 558.028 605.207 558.069 605.069 558.058 604.95 557.998 604.822 557.93 604.727 557.811 604.688 557.67L594.036 528.946 595.998 523.517ZM618.84 469.868C618.751 469.967 618.62 470.016 618.489 470.001 616.314 469.908 614.191 470.685 612.591 472.16 610.733 473.941 610.455 476.811 611.937 478.915 614.745 482.839 613.84 488.297 609.916 491.105 608.63 492.025 607.119 492.579 605.544 492.708 605.198 492.734 604.85 492.739 604.503 492.721L603.733 492.685 595.161 519.948 592.031 528.609 581.243 557.706C581.158 557.969 580.876 558.114 580.613 558.029 580.612 558.029 580.61 558.028 580.609 558.028 580.341 557.934 580.2 557.641 580.294 557.373 580.296 557.368 580.297 557.363 580.299 557.358L590.792 520.561 593.9 511.175 600.437 491.588 599.827 491.16C595.882 488.387 594.932 482.941 597.705 478.997 599.471 476.484 602.427 475.084 605.489 475.31L606.209 475.394C607.651 475.545 609.076 474.984 610.028 473.891L610.146 473.722C610.381 473.301 610.65 472.899 610.948 472.52L611.023 472.435C612.835 470.188 615.596 468.919 618.481 469.009 618.715 469.009 618.921 469.163 618.987 469.387 619.028 469.562 618.972 469.746 618.84 469.869Z"/><path d="M587.114 487.052C588.806 483.723 587.478 479.653 584.148 477.961 580.819 476.27 576.749 477.598 575.057 480.928 573.366 484.257 574.694 488.327 578.024 490.018 579.627 490.833 581.49 490.975 583.198 490.413 584.9 489.861 586.31 488.651 587.114 487.052ZM585.331 486.148C584.148 488.485 581.294 489.42 578.957 488.236 576.62 487.052 575.685 484.198 576.869 481.862 578.052 479.525 580.906 478.59 583.243 479.773 584.365 480.342 585.216 481.333 585.607 482.529 586.001 483.724 585.902 485.027 585.331 486.148Z"/><path d="M606.941 477.598C603.403 476.438 599.594 478.367 598.434 481.906 597.274 485.445 599.203 489.254 602.742 490.413 606.28 491.573 610.089 489.644 611.249 486.106 611.806 484.406 611.665 482.554 610.856 480.958 610.048 479.364 608.64 478.155 606.941 477.598ZM609.35 485.481C608.536 487.971 605.857 489.329 603.367 488.515 600.877 487.7 599.518 485.021 600.333 482.531 601.148 480.041 603.826 478.683 606.316 479.498 607.512 479.889 608.504 480.739 609.073 481.862 609.645 482.983 609.744 484.286 609.35 485.481Z"/><path d="M593.135 518.455 593.134 518.455C592.333 518.462 591.689 519.117 591.695 519.919 591.702 520.711 592.343 521.351 593.135 521.357L593.136 521.357C593.937 521.35 594.581 520.695 594.575 519.893 594.568 519.102 593.927 518.461 593.135 518.455Z"/></g></svg>