<svg width="96" height="96" xmlns="http://www.w3.org/2000/svg" xmlns:xlink="http://www.w3.org/1999/xlink" xml:space="preserve" overflow="hidden"><defs><clipPath id="clip0"><rect x="592" y="312" width="96" height="96"/></clipPath></defs><g clip-path="url(#clip0)" transform="translate(-592 -312)"><path d="M681.437 361.958 640.007 322.597 598.572 361.958 605.06 368.446 610.005 363.764 610.005 395.976 670.005 396 670.005 363.723 674.974 368.421ZM668.005 394 612.005 393.978 612.005 361.87 640.007 335.354 668.005 361.831ZM640.007 332.6 605.098 365.656 601.438 361.995 640.007 325.356 678.572 361.995 674.935 365.632Z"/><path d="M634.011 361.796 634.011 363 626.512 363C625.685 363.003 625.015 363.673 625.012 364.5L625.012 382.848C625.015 383.676 625.685 384.346 626.512 384.348L653.511 384.348C654.339 384.346 655.009 383.676 655.011 382.848L655.011 364.5C655.009 363.673 654.339 363.003 653.511 363L646.091 363 646.091 361.796C646.089 360.14 644.747 358.798 643.091 358.796L637.011 358.796C635.355 358.797 634.013 360.14 634.011 361.796ZM627.012 382.349 627.012 373 636.82 373C637.102 374.5 638.41 375.588 639.937 375.591L640.087 375.591C641.613 375.588 642.922 374.5 643.203 373L653.011 373 653.011 382.349ZM638.761 372.415 638.761 371.466 641.263 371.466 641.263 372.415C641.262 373.065 640.736 373.59 640.087 373.591L639.937 373.591C639.288 373.59 638.761 373.065 638.761 372.415ZM653.011 371 643.263 371 643.263 369.466 636.761 369.466 636.761 371 627.012 371 627.012 365 653.011 365ZM644.091 361.796 644.091 363 636.011 363 636.011 361.796C636.012 361.244 636.459 360.796 637.011 360.796L643.091 360.796C643.643 360.797 644.09 361.244 644.091 361.796Z"/></g></svg>