<svg width="96" height="96" xmlns="http://www.w3.org/2000/svg" xmlns:xlink="http://www.w3.org/1999/xlink" xml:space="preserve" overflow="hidden"><defs><clipPath id="clip0"><rect x="772" y="502" width="96" height="96"/></clipPath></defs><g clip-path="url(#clip0)" transform="translate(-772 -502)"><path d="M864.473 528.06 864.316 527.918 856.192 525.21 853.392 516.71 844.792 513.81 842.076 505.561 841.907 505.393C841.206 504.691 840.205 504.377 839.229 504.553 838.234 504.734 837.393 505.392 836.978 506.314L828.257 527.147C824.421 526.825 820.636 528.193 817.893 530.893L800.893 547.893C798.164 550.67 796.797 554.51 797.159 558.387L776.441 566.967C774.909 567.581 774.164 569.321 774.778 570.853 774.943 571.267 775.199 571.638 775.527 571.94L775.685 572.083 783.908 574.792 786.708 583.292 795.208 586.092 797.924 594.339 798.093 594.507C798.662 595.076 799.434 595.395 800.239 595.395 801.444 595.395 802.536 594.685 803.024 593.583L811.634 572.783C812.075 572.83 812.517 572.855 812.96 572.858 816.376 572.867 819.646 571.475 822.007 569.006L839.007 552.006C841.774 549.221 843.143 545.341 842.737 541.436L863.437 532.843C864.397 532.561 865.132 531.785 865.36 530.81 865.593 529.8 865.252 528.744 864.473 528.06ZM801.192 592.781C800.953 593.307 800.333 593.54 799.807 593.301 799.757 593.279 799.708 593.252 799.662 593.221L796.792 584.508 788.292 581.708 785.492 573.208 776.752 570.329C776.433 569.878 776.54 569.254 776.991 568.935 777.051 568.893 777.115 568.857 777.183 568.829L797.515 560.41C797.86 561.698 798.4 562.925 799.115 564.05L793.475 567.486C793.001 567.769 792.846 568.383 793.129 568.857 793.412 569.331 794.026 569.486 794.5 569.203 794.506 569.2 794.511 569.197 794.517 569.193L800.341 565.645C800.519 565.839 800.699 566.032 800.889 566.212L803.689 569.012C803.819 569.142 803.957 569.261 804.089 569.385L800.541 575.5C800.289 575.992 800.484 576.594 800.976 576.846 801.432 577.079 801.991 576.93 802.27 576.5L805.682 570.629C806.886 571.439 808.218 572.043 809.621 572.415ZM837.592 550.593 820.581 567.605C818.153 570.14 814.625 571.305 811.165 570.714 808.868 570.335 806.749 569.243 805.107 567.593L802.288 564.774C800.634 563.157 799.546 561.049 799.188 558.763 798.697 555.298 799.849 551.802 802.304 549.307L819.304 532.307C821.795 529.86 825.28 528.708 828.739 529.188 831.072 529.539 833.229 530.632 834.89 532.307L837.69 535.107C839.329 536.731 840.388 538.849 840.706 541.134 841.214 544.601 840.061 548.105 837.593 550.593ZM862.825 530.938 842.4 539.412C842.047 538.07 841.472 536.797 840.7 535.644L846.5 532.293C846.98 532.02 847.148 531.409 846.875 530.929 846.602 530.449 845.992 530.281 845.511 530.554 845.508 530.557 845.504 530.559 845.5 530.561L839.443 534.061C839.33 533.94 839.224 533.815 839.107 533.697L836.307 530.897C836.17 530.76 836.026 530.635 835.885 530.505L839.385 524.505C839.662 524.027 839.5 523.415 839.023 523.138 838.545 522.86 837.932 523.022 837.655 523.5L834.3 529.252C833.075 528.433 831.719 527.832 830.29 527.474L838.81 507.119C838.952 506.803 839.241 506.578 839.582 506.519 839.846 506.469 840.118 506.526 840.34 506.677L843.209 515.386 851.809 518.286 854.609 526.786 863.251 529.666C863.408 529.857 863.469 530.11 863.414 530.351 863.344 530.642 863.116 530.869 862.825 530.938Z"/></g></svg>