<svg width="96" height="96" xmlns="http://www.w3.org/2000/svg" xmlns:xlink="http://www.w3.org/1999/xlink" xml:space="preserve" overflow="hidden"><defs><clipPath id="clip0"><rect x="76" y="36" width="96" height="96"/></clipPath></defs><g clip-path="url(#clip0)" transform="translate(-76 -36)"><path d="M153.255 70.512C145.74 62.328 137.155 65.187 130.249 67.484 129.214 67.828 128.215 68.161 127.261 68.44 126.76 68.5817 126.247 68.6758 125.729 68.721 125.629 68.176 125.519 67.632 125.385 67.097 125.058 65.852 124.614 64.6409 124.058 63.48 124.437 63.51 124.818 63.532 125.198 63.532 125.963 63.5334 126.728 63.4665 127.481 63.332 130.812 62.845 133.91 61.3355 136.346 59.012 141.546 53.812 141.046 45.012 141.046 45.012 141.046 45.012 140.814 45 140.405 45 138.274 45 131.324 45.352 127.046 49.713 125.105 51.8055 123.731 54.3593 123.055 57.132 122.906 57.7834 122.799 58.4438 122.735 59.109L122.585 60.453C122.171 59.6788 121.709 58.9316 121.2 58.216 118.969 55.1026 116.186 52.4249 112.988 50.316L111.888 51.986C114.882 53.9585 117.489 56.4644 119.577 59.379 120.282 60.3716 120.895 61.4267 121.407 62.531L122.183 64.171C122.716 65.2625 123.14 66.4041 123.449 67.579 123.542 67.951 123.614 68.329 123.688 68.706 123.124 68.6595 122.565 68.559 122.02 68.406 121.131 68.146 120.19 67.84 119.205 67.52 112.179 65.238 102.558 62.112 95.025 70.414 88.484 77.629 89.809 102.802 99.67 115.853 104.09 121.704 111.927 127.388 124.24 121.519 127.293 123.087 130.661 123.941 134.092 124.019 140.845 124.019 145.579 120.056 148.652 116.005 158.534 102.98 159.835 77.771 153.255 70.512ZM124.723 59.331C124.779 58.7508 124.872 58.1747 125 57.606 125.597 55.1741 126.801 52.9334 128.5 51.094 131.569 47.982 136.363 47.221 139.013 47.048 138.832 49.694 138.056 54.482 134.913 57.621 132.777 59.6573 130.052 60.9675 127.128 61.365 126.492 61.4778 125.847 61.5337 125.201 61.532 124.965 61.532 124.725 61.525 124.483 61.511ZM147.054 114.8C143.065 120.059 135.946 125.146 124.685 119.514L124.24 119.291 123.793 119.512C112.45 125.129 105.28 119.967 101.261 114.649 92.061 102.476 90.548 78.327 96.501 71.76 103.165 64.415 111.713 67.193 118.582 69.424 119.582 69.751 120.548 70.063 121.454 70.324 122.283 70.5654 123.138 70.7067 124 70.745 124.249 70.759 124.49 70.77 124.49 70.77 125.617 70.8129 126.744 70.6745 127.827 70.36 128.802 70.074 129.827 69.734 130.884 69.381 137.568 67.156 145.144 64.634 151.784 71.86 157.765 78.465 156.275 102.649 147.054 114.8Z"/></g></svg>