<svg width="96" height="96" xmlns="http://www.w3.org/2000/svg" xmlns:xlink="http://www.w3.org/1999/xlink" xml:space="preserve" overflow="hidden"><defs><clipPath id="clip0"><rect x="358" y="307" width="96" height="96"/></clipPath></defs><g clip-path="url(#clip0)" transform="translate(-358 -307)"><path d="M441.182 330.561C439.32 328.777 436.841 327.781 434.263 327.781L434.053 327.781C433.817 327.781 433.427 327.781 433.194 327.812 433.234 327.46 433.254 327.106 433.254 326.752 433.242 321.255 428.797 316.798 423.3 316.773L423.23 316.773C417.707 316.784 413.239 321.27 413.25 326.793 413.255 329.349 414.239 331.807 416 333.661L384.657 365C380.669 361.179 374.339 361.315 370.518 365.303 366.697 369.291 366.833 375.621 370.821 379.442 372.682 381.225 375.16 382.221 377.738 382.221L377.753 382.221C378.105 382.221 378.456 382.201 378.806 382.161 378.766 382.513 378.746 382.867 378.746 383.221 378.741 388.744 383.214 393.225 388.737 393.23 388.738 393.23 388.739 393.23 388.74 393.23L388.748 393.23C394.271 393.231 398.749 388.754 398.75 383.232 398.75 380.668 397.766 378.202 396 376.343L427.343 345C431.331 348.822 437.661 348.687 441.482 344.699 445.304 340.712 445.169 334.382 441.182 330.56ZM440.04 343.316C438.459 344.977 436.238 345.874 433.948 345.776 431.907 345.661 429.979 344.803 428.526 343.365L427.313 342.2 425.929 343.584 394.585 374.928 393.206 376.307 394.418 377.582C395.579 378.769 396.354 380.28 396.643 381.915 397.339 386.278 394.366 390.379 390.003 391.075 385.64 391.771 381.539 388.798 380.843 384.435 380.779 384.034 380.745 383.628 380.743 383.221 380.743 382.943 380.759 382.666 380.79 382.39L381.075 379.902C381.076 379.896 381.072 379.892 381.066 379.891 381.065 379.891 381.065 379.891 381.064 379.891L378.576 380.176C378.273 380.21 377.969 380.225 377.664 380.222 376.164 380.217 374.696 379.785 373.432 378.976 369.701 376.609 368.596 371.665 370.963 367.935 372.494 365.522 375.195 364.109 378.05 364.228 380.091 364.343 382.019 365.201 383.471 366.639L384.687 367.8 386.071 366.415 417.415 335.075 418.794 333.7 417.582 332.424C416.422 331.238 415.647 329.73 415.358 328.097 414.634 323.732 417.586 319.607 421.951 318.884 422.375 318.814 422.804 318.777 423.234 318.776L423.253 318.776C427.66 318.784 431.234 322.348 431.253 326.755 431.253 327.033 431.237 327.311 431.206 327.587L431.137 328.187C430.718 328.297 430.307 328.434 429.906 328.597L429.686 328.671C429.369 328.793 429.061 328.937 428.763 329.1 428.279 329.365 428.101 329.973 428.367 330.457 428.632 330.942 429.24 331.119 429.724 330.854 429.933 330.741 430.149 330.641 430.37 330.554L430.591 330.479C431.314 330.181 432.072 329.977 432.847 329.873L432.9 329.865 433.42 329.806C433.475 329.8 433.841 329.771 434.215 329.771L434.243 329.771C435.405 329.754 436.557 330.001 437.609 330.495 440.388 331.792 442.191 334.553 442.261 337.619 442.31 339.738 441.51 341.789 440.04 343.316Z"/></g></svg>