<svg width="96" height="96" xmlns="http://www.w3.org/2000/svg" xmlns:xlink="http://www.w3.org/1999/xlink" xml:space="preserve" overflow="hidden"><defs><clipPath id="clip0"><rect x="196" y="462" width="96" height="96"/></clipPath></defs><g clip-path="url(#clip0)" transform="translate(-196 -462)"><path d="M224.639 534.543C224.244 534.543 223.886 534.312 223.725 533.951 222.92 532.427 223.192 530.557 224.398 529.325 225.277 528.139 228.268 526 233.5 526 238.732 526 241.723 528.139 242.666 529.4 242.997 529.842 242.908 530.469 242.466 530.8 242.024 531.131 241.397 531.042 241.066 530.6 240.527 529.877 238.118 528 233.504 528 228.89 528 226.481 529.875 225.942 530.6 225.223 531.244 225.061 532.308 225.555 533.137 225.78 533.641 225.554 534.233 225.05 534.458 224.922 534.515 224.783 534.545 224.643 534.545Z"/><path d="M236.526 535.085C236.211 535.085 235.915 534.937 235.726 534.685 235.105 534.169 234.304 533.922 233.5 534 232.696 533.922 231.895 534.169 231.274 534.686 230.931 535.112 230.312 535.19 229.874 534.862 229.441 534.536 229.351 533.922 229.674 533.486 230.663 532.443 232.066 531.898 233.5 532 234.934 531.897 236.338 532.443 237.327 533.486 237.658 533.928 237.569 534.555 237.127 534.886 236.954 535.016 236.743 535.086 236.527 535.086Z"/><path d="M232.418 492C232.155 491.995 231.905 491.885 231.725 491.693 231.342 491.343 231.315 490.749 231.665 490.366 231.684 490.345 231.704 490.325 231.725 490.306 233.213 488.73 233.213 486.267 231.725 484.691 229.425 482.329 229.425 478.564 231.725 476.202 231.905 476.01 232.155 475.9 232.418 475.895L232.418 475.895C232.96 475.884 233.408 476.315 233.418 476.856 233.424 477.133 233.312 477.399 233.111 477.589 232.363 478.283 231.932 479.254 231.919 480.274 231.902 481.372 232.332 482.43 233.111 483.204 235.411 485.566 235.411 489.331 233.111 491.693 232.931 491.885 232.681 491.996 232.418 492Z"/><path d="M242.582 486C242.319 485.995 242.069 485.885 241.889 485.693 241.506 485.343 241.479 484.749 241.829 484.366 241.848 484.345 241.868 484.325 241.889 484.306 243.378 482.73 243.378 480.267 241.889 478.691 239.589 476.329 239.589 472.564 241.889 470.202 242.069 470.01 242.319 469.9 242.582 469.895L242.582 469.895C243.124 469.884 243.572 470.315 243.582 470.856 243.588 471.133 243.476 471.399 243.275 471.589 242.527 472.283 242.096 473.254 242.083 474.274 242.066 475.372 242.496 476.43 243.275 477.204 245.575 479.566 245.575 483.331 243.275 485.693 243.095 485.885 242.845 485.996 242.582 486Z"/><path d="M253.418 492C253.155 491.995 252.905 491.885 252.725 491.693 252.342 491.343 252.315 490.749 252.665 490.366 252.684 490.345 252.704 490.325 252.725 490.306 254.213 488.73 254.213 486.267 252.725 484.691 250.425 482.329 250.425 478.564 252.725 476.202 252.905 476.01 253.155 475.9 253.418 475.895L253.418 475.895C253.96 475.884 254.408 476.315 254.418 476.856 254.424 477.133 254.312 477.399 254.111 477.589 253.363 478.283 252.932 479.254 252.919 480.274 252.902 481.372 253.332 482.43 254.111 483.204 256.411 485.566 256.411 489.331 254.111 491.693 253.931 491.885 253.681 491.996 253.418 492Z"/><path d="M213.385 541.887C207.07 538.726 203.229 534.587 203.229 530.057 203.229 525.435 207.541 520.905 214.945 517.552 214.634 516.958 214.372 516.339 214.163 515.702 205.889 519.42 201.229 524.531 201.229 530.057 201.229 535.583 205.842 540.538 213.408 544.118 213.283 543.38 213.275 542.627 213.385 541.887Z"/><path d="M274.632 516.041C274.732 516.264 274.832 516.484 274.922 516.71L274.992 516.9 275.109 517.256C275.974 518.003 276.733 518.863 277.367 519.814 282.103 522.807 284.767 526.395 284.767 530.057 284.771 539.95 266.481 548 244 548 236.178 548.067 228.387 546.997 220.873 544.823 220.88 545.507 220.685 546.179 220.313 546.753 228.008 548.983 235.988 550.077 244 550 267.984 550 286.771 541.24 286.771 530.057 286.771 524.677 282.4 519.715 274.632 516.041Z"/><path d="M267 536.75C261.477 536.75 257 532.273 257 526.75 257 521.227 261.477 516.75 267 516.75 272.523 516.75 277 521.227 277 526.75 276.994 532.27 272.52 536.744 267 536.75ZM267 518.75C262.582 518.75 259 522.332 259 526.75 259 531.168 262.582 534.75 267 534.75 271.418 534.75 275 531.168 275 526.75 274.995 522.334 271.416 518.755 267 518.75Z"/><path d="M218.848 515.319C216.947 511.402 218.581 506.685 222.498 504.784 226.415 502.882 231.132 504.517 233.033 508.434 233.5 509.395 233.766 510.44 233.816 511.507 234.488 511.514 235.157 511.543 235.816 511.591 235.666 506.135 231.121 501.833 225.665 501.984 220.209 502.134 215.907 506.679 216.057 512.135 216.099 513.627 216.477 515.091 217.165 516.416 217.708 516.03 218.269 515.664 218.848 515.319Z"/><path d="M254.192 505.006C251.366 499.491 245.697 496.016 239.5 496 235.616 495.99 231.855 497.361 228.889 499.869 229.668 500.058 230.427 500.322 231.155 500.658 233.593 498.926 236.51 497.997 239.5 498 244.617 498.014 249.351 500.714 251.968 505.111 250.524 505.252 249.099 505.55 247.719 506 244.635 502.045 239.168 500.855 234.719 503.169 234.881 503.332 235.051 503.486 235.204 503.659 235.503 504.001 235.784 504.358 236.045 504.73 239.385 503.245 243.3 504.065 245.764 506.764 244.465 507.35 243.232 508.074 242.089 508.925 240.786 508.12 239.231 507.825 237.724 508.096 237.93 508.737 238.084 509.394 238.183 510.06 238.935 509.922 239.711 510.011 240.413 510.315 239.16 511.481 238.06 512.8 237.14 514.243 236.789 514.199 236.44 514.143 236.086 514.112 235.24 514.038 234.369 514 233.5 514 228.112 513.907 222.832 515.513 218.409 518.59 217.235 519.442 216.169 520.433 215.233 521.542 213.187 523.889 212.041 526.887 212 530 212 530.518 212.034 531.035 212.1 531.549 212.345 533.509 214.004 534.985 215.98 535L216.18 535C217.275 535.008 218.32 534.538 219.041 533.714 219.821 532.819 220.179 531.632 220.025 530.455 220.008 530.304 219.999 530.152 220 530 220 526.224 225.773 522 233.5 522 241.227 522 247 526.224 247 530 247 533.776 241.227 538 233.5 538 231.719 538 229.827 537.817 228 537.642 224.306 537.286 221.115 536.979 219.064 538.075 217.55 538.815 216.42 540.163 215.955 541.783 215.626 543.01 215.835 544.32 216.531 545.383 216.842 545.839 217.465 545.956 217.921 545.645 218.366 545.341 218.49 544.738 218.201 544.283 217.819 543.69 217.708 542.963 217.894 542.283 218.221 541.208 218.986 540.321 220 539.839 221.518 539.027 224.569 539.32 227.8 539.633 229.677 539.813 231.618 540 233.5 540 242.771 540 249 534.829 249 530 249 525.171 242.771 520 233.5 520 224.229 520 218 525.171 218 530 218 530.234 218.015 530.468 218.043 530.7 218.126 531.31 217.944 531.926 217.543 532.392 217.198 532.783 216.701 533.006 216.18 533.002L215.98 533.002C215.008 532.991 214.195 532.261 214.08 531.296 214.026 530.866 213.999 530.433 214 530 214.044 527.356 215.024 524.814 216.767 522.825 217.599 521.839 218.547 520.958 219.591 520.2 223.671 517.375 228.538 515.905 233.5 516 234.31 516 235.121 516.036 235.912 516.106 245.653 516.973 253 522.946 253 530 252.933 533.07 251.636 535.985 249.4 538.09 249.011 538.482 249.013 539.116 249.405 539.505 249.797 539.894 250.431 539.892 250.82 539.5 253.432 537.023 254.938 533.599 255 530 254.904 526.209 253.234 522.629 250.391 520.119 252.205 518.75 254.671 518.626 256.613 519.806 256.989 519.252 257.409 518.729 257.868 518.242 255.064 516.401 251.382 516.625 248.821 518.792 247.745 517.975 246.594 517.262 245.384 516.663 249.649 512.227 256.587 511.761 261.408 515.586 262.089 515.243 262.801 514.963 263.533 514.75 257.899 509.494 249.07 509.8 243.814 515.434 243.696 515.56 243.581 515.689 243.468 515.819 242.117 515.297 240.724 514.889 239.305 514.6 245.053 506.481 256.295 504.559 264.414 510.308 265.992 511.425 267.38 512.79 268.525 514.349 269.491 514.468 270.439 514.701 271.35 515.043 267.835 508.872 261.294 505.045 254.192 505.006Z"/></g></svg>