<svg width="96" height="96" xmlns="http://www.w3.org/2000/svg" xmlns:xlink="http://www.w3.org/1999/xlink" xml:space="preserve" overflow="hidden"><defs><clipPath id="clip0"><rect x="64" y="466" width="96" height="96"/></clipPath></defs><g clip-path="url(#clip0)" transform="translate(-64 -466)"><path d="M129 483.5C129 485.433 130.567 487 132.5 487 134.433 487 136 485.433 136 483.5 136 481.567 134.433 480 132.5 480 130.567 480 129 481.567 129 483.5ZM134 483.5C134 484.328 133.328 485 132.5 485 131.672 485 131 484.328 131 483.5 131 482.672 131.672 482 132.5 482 133.328 482 134 482.672 134 483.5Z"/><path d="M119 483.5C119 485.433 120.567 487 122.5 487 124.433 487 126 485.433 126 483.5 126 481.567 124.433 480 122.5 480 120.567 480 119 481.567 119 483.5ZM124 483.5C124 484.328 123.328 485 122.5 485 121.672 485 121 484.328 121 483.5 121 482.672 121.672 482 122.5 482 123.328 482 124 482.672 124 483.5Z"/><path d="M82 493 132.172 493 134.172 491 82 491 82 476 142 476 142 483.172 144 481.172 144 474 80 474 80 545.172 82 543.172 82 493Z"/><path d="M102 487 102 480 88 480 88 487ZM90 482 100 482 100 485 90 485Z"/><path d="M112 510C112.951 510.004 113.899 510.121 114.823 510.349L116.439 508.733C109.127 506.267 101.199 510.195 98.733 517.507 97.7558 520.404 97.7558 523.542 98.733 526.439L100.351 524.821C100.338 524.767 100.32 524.721 100.308 524.663 100.363 524.677 100.419 524.684 100.475 524.697L102.616 522.556 102.677 522.495C102.682 522.495 102.625 522.525 102.599 522.539 102.277 522.718 101.919 522.821 101.551 522.839 101.003 522.861 100.464 522.699 100.019 522.379 100.019 522.253 100 522.13 100 522.004 100.005 515.378 105.374 510.007 112 510Z"/><path d="M121.005 504.167C111.178 499.172 99.1625 503.088 94.167 512.915 91.2776 518.599 91.2776 525.321 94.167 531.005L95.667 529.505C91.5025 520.502 95.4249 509.828 104.428 505.663 109.212 503.45 114.725 503.45 119.509 505.663Z"/><path d="M109 483.5C109 485.433 110.567 487 112.5 487 114.433 487 116 485.433 116 483.5 116 481.567 114.433 480 112.5 480 110.567 480 109 481.567 109 483.5ZM114 483.5C114 484.328 113.328 485 112.5 485 111.672 485 111 484.328 111 483.5 111 482.672 111.672 482 112.5 482 113.328 482 114 482.672 114 483.5Z"/><path d="M155.207 478.207 153.793 476.793 72.634 557.953 74.048 559.367 80 553.414 80 554 144 554 144 489.414ZM130 522C130.017 531.926 121.985 539.986 112.059 540.003 107.123 540.012 102.4 537.989 99 534.411L101.83 531.581C107.123 537.195 115.966 537.455 121.579 532.161 127.193 526.868 127.453 518.026 122.16 512.412 121.973 512.213 121.779 512.02 121.581 511.833L124.411 509C127.979 512.383 129.999 517.083 130 522ZM109.409 524.006C111.29 525.365 113.901 525.048 115.402 523.277 115.873 522.724 116.563 522.406 117.29 522.406L117.3 522.406C118.022 522.407 118.707 522.726 119.174 523.277 120.27 524.601 122.048 525.146 123.697 524.662 122.255 531.102 115.866 535.155 109.425 533.713 107.057 533.183 104.906 531.945 103.259 530.162ZM124 522C124 522.127 123.985 522.25 123.981 522.376 122.947 523.119 121.517 522.945 120.691 521.976 119.846 520.981 118.606 520.407 117.3 520.406L117.29 520.406C115.979 520.406 114.734 520.98 113.883 521.977 113.116 522.814 111.889 523.045 110.871 522.543L120.171 513.243C122.61 515.502 123.997 518.675 124 522ZM142 493 142 552 82 552 82 551.414 97.588 535.826C105.216 543.793 117.859 544.068 125.826 536.44 133.793 528.812 134.068 516.169 126.44 508.202 126.24 507.993 126.035 507.788 125.826 507.588L140.414 493Z"/></g></svg>