<svg width="96" height="96" xmlns="http://www.w3.org/2000/svg" xmlns:xlink="http://www.w3.org/1999/xlink" xml:space="preserve" overflow="hidden"><defs><clipPath id="clip0"><rect x="920" y="481" width="96" height="96"/></clipPath></defs><g clip-path="url(#clip0)" transform="translate(-920 -481)"><path d="M990 512 972.477 512 974.807 487.239C974.91 486.139 974.102 485.164 973.003 485.061 972.999 485.061 972.995 485.06 972.992 485.06L970 484.8C969.94 484.8 969.881 484.793 969.822 484.793 968.792 484.793 967.93 485.575 967.831 486.6L965.441 512 946 512C945.448 512 945 512.448 945 513 945 513.552 945.448 514 946 514L947.751 514 952.751 571 983.251 571 988.251 514 990 514C990.552 514 991 513.552 991 513 991 512.448 990.552 512 990 512ZM969.824 486.788 972.816 487.052 970.468 512 967.45 512ZM967.262 514 970.28 514 969.056 527 966.038 527ZM965.252 514 964.029 527 950.9 527 949.76 514ZM981.417 569 954.583 569 951.074 529 984.926 529ZM985.1 527 971.065 527 972.289 514 986.241 514Z"/><path d="M966.5 556C966.5 554.343 965.157 553 963.5 553 961.843 553 960.5 554.343 960.5 556 960.5 557.657 961.843 559 963.5 559 965.157 559 966.5 557.657 966.5 556ZM963.5 557C962.948 557 962.5 556.552 962.5 556 962.5 555.448 962.948 555 963.5 555 964.052 555 964.5 555.448 964.5 556 964.5 556.552 964.052 557 963.5 557Z"/><path d="M975.5 556C975.5 554.343 974.157 553 972.5 553 970.843 553 969.5 554.343 969.5 556 969.5 557.657 970.843 559 972.5 559 974.157 559 975.5 557.657 975.5 556ZM972.5 557C971.948 557 971.5 556.552 971.5 556 971.5 555.448 971.948 555 972.5 555 973.052 555 973.5 555.448 973.5 556 973.5 556.552 973.052 557 972.5 557Z"/><path d="M959 561C957.343 561 956 562.343 956 564 956 565.657 957.343 567 959 567 960.657 567 962 565.657 962 564 962 562.343 960.657 561 959 561ZM959 565C958.448 565 958 564.552 958 564 958 563.448 958.448 563 959 563 959.552 563 960 563.448 960 564 960 564.552 959.552 565 959 565Z"/><path d="M968 561C966.343 561 965 562.343 965 564 965 565.657 966.343 567 968 567 969.657 567 971 565.657 971 564 971 562.343 969.657 561 968 561ZM968 565C967.448 565 967 564.552 967 564 967 563.448 967.448 563 968 563 968.552 563 969 563.448 969 564 969 564.552 968.552 565 968 565Z"/><path d="M977 561C975.343 561 974 562.343 974 564 974 565.657 975.343 567 977 567 978.657 567 980 565.657 980 564 980 562.343 978.657 561 977 561ZM977 565C976.448 565 976 564.552 976 564 976 563.448 976.448 563 977 563 977.552 563 978 563.448 978 564 978 564.552 977.552 565 977 565Z"/></g></svg>