<svg width="96" height="96" xmlns="http://www.w3.org/2000/svg" xmlns:xlink="http://www.w3.org/1999/xlink" xml:space="preserve" overflow="hidden"><defs><clipPath id="clip0"><rect x="511" y="170" width="96" height="96"/></clipPath></defs><g clip-path="url(#clip0)" transform="translate(-511 -170)"><path d="M560 178.661 526 199.267 526 237.394 560 258 594 237.394 594 199.267ZM591.071 199.831 576.75 208.51 545.679 189.679 560 181ZM560 218.661 528.929 199.831 543.75 190.848 574.821 209.679ZM528 201.605 559 220.394 559 255.055 528 236.267ZM561 255.055 561 220.394 592 201.605 592 236.267Z"/><path d="M565.971 222.115 565 222.7 565 231.365 568.029 229.548 573.029 226.548 574 225.963 574 217.3 570.971 219.117ZM572 224.831 567 227.831 567 223.831 572 220.831Z"/></g></svg>